.
..............................Site Info...........................

 -   http://www.scenetime.com  *_*    SceneTime is going to open Sign Up for few days on jul/10.


Scenetime .Always on time . friendly online private torrent community ..

     We care to share . Join us on  http://www.scenetime.com 

    Be the first to get new release at  http://www.scenetime.com

        Seed back for speed


...................................NFO:.................................................
[IMG]http://i.imgur.com/71Eps.jpg[/IMG]




Inseparable.2011.HDRip.HC(English).XVID.HS
 
http://www.imdb.com/title/tt1032763/

Source--- Who Else

Subtitle--Harecoded(Foreign Parts)


Format                                   : AVI
Format/Info                              : Audio Video Interleave
Format profile                           : OpenDML
File size                                : 1.69 GiB
Duration                                 : 1h 36mn
Overall bit rate                         : 2 494 Kbps
Writing application                      : Lavf52.103.0

Video
ID                                       : 1
Format                                   : MPEG-4 Visual
Format profile                           : Simple@L1
Format settings, BVOP                    : No
Format settings, QPel                    : No
Format settings, GMC                     : No warppoints
Format settings, Matrix                  : Default (H.263)
Codec ID                                 : XVID
Duration                                 : 1h 36mn
Bit rate                                 : 2 353 Kbps
Width                                    : 720 pixels
Height                                   : 306 pixels
Display aspect ratio                     : 2.35:1
Frame rate                               : 23.976 fps
Color space                              : YUV
Chroma subsampling                       : 4:2:0
Bit depth                                : 8 bits
Scan type                                : Progressive
Compression mode                         : Lossy
Bits/(Pixel*Frame)                       : 0.446
Stream size                              : 1.59 GiB (94%)
Writing library                          : Lavc52.116.0

Audio
ID                                       : 0
Format                                   : MPEG Audio
Format version                           : Version 1
Format profile                           : Layer 3
Mode                                     : Joint stereo
Mode extension                           : MS Stereo
Codec ID                                 : 55
Codec ID/Hint                            : MP3
Duration                                 : 1h 36mn
Bit rate mode                            : Constant
Bit rate                                 : 128 Kbps
Channel(s)                               : 2 channels
Sampling rate                            : 44.1 KHz
Compression mode                         : Lossy
Stream size                              : 88.7 MiB (5%)
Alignment                                : Aligned on interleaves
Interleave, duration                     : 42 ms (1.00 video frame)
Writing library                          : LAME3.98.4




[IMG]http://i.imgur.com/jCao9.png[/IMG]

[IMG]http://i.imgur.com/gZIj8.png[/IMG]

[IMG]http://i.imgur.com/WgTyL.png[/IMG]

[IMG]http://i.imgur.com/QhcLB.png[/IMG]

GREETZ-Everyone :D
